Patient4_TMGait_0pt5_01_left_12_GRF.mot
version=1
nRows=31
nColumns=19
inDegrees=no
endheader
time	F1x	F1y	F1z	M1x	M1y	M1z	F2x	F2y	F2z	M2x	M2y	M2z	EC1x	EC1y	EC1z	EC2x	EC2y	EC2z
16.03	0	0	0	0	0	0	-42.1162	807.3678	-59.5474	314.653	67.7011	686.3682	-0.0462	0.0182	-0.0073	-0.0462	0.0165	0.9715
16.0431	0	0	0	0	0	0	-42.0783	834.6503	-62.8467	325.2003	70.2877	707.6922	-0.0462	0.0182	-0.0073	-0.0462	0.0165	0.9715
16.0561	0	0	0	0	0	0	-40.4364	841.2581	-64.8117	327.6647	71.0457	710.8383	-0.0462	0.0182	-0.0073	-0.0462	0.0165	0.9715
16.0692	0	0	0	0	0	0	-37.4496	831.9075	-65.6635	323.8925	70.2797	699.849	-0.0462	0.0182	-0.0073	-0.0462	0.0165	0.9715
16.0823	0	0	0	0	0	0	-33.4627	812.2384	-65.6791	316.0937	68.3783	679.5824	-0.0462	0.0182	-0.0073	-0.0462	0.0165	0.9715
16.0954	0	0	0	0	0	0	-28.8561	787.8926	-65.1427	306.4805	65.7515	654.9187	-0.0462	0.0182	-0.0073	-0.0462	0.0165	0.9715
16.1084	0	0	0	0	0	0	-24.0013	763.7633	-64.3086	296.9729	62.779	630.1135	-0.0462	0.0182	-0.0073	-0.0462	0.0165	0.9715
16.1215	0	0	0	0	0	0	-19.2252	743.498	-63.3777	289.0033	59.7745	608.3658	-0.0462	0.0182	-0.0073	-0.0462	0.0165	0.9715
16.1346	0	0	0	0	0	0	-14.7851	729.2785	-62.4898	283.4293	56.968	591.6243	-0.0462	0.0182	-0.0073	-0.0462	0.0165	0.9715
16.1476	0	0	0	0	0	0	-10.8562	721.8549	-61.7275	280.5461	54.5033	580.6107	-0.0462	0.0182	-0.0073	-0.0462	0.0165	0.9715
16.1607	0	0	0	0	0	0	-7.5303	720.7756	-61.1285	280.1771	52.4478	575.0128	-0.0462	0.0182	-0.0073	-0.0462	0.0165	0.9715
16.1738	0	0	0	0	0	0	-4.824	724.7391	-60.7005	281.8105	50.8092	573.7808	-0.0462	0.0182	-0.0073	-0.0462	0.0165	0.9715
16.1869	0	0	0	0	0	0	-2.6951	731.9864	-60.4357	284.7537	49.5546	575.4612	-0.0462	0.0182	-0.0073	-0.0462	0.0165	0.9715
16.1999	0	0	0	0	0	0	-1.0628	740.6655	-60.3212	288.276	48.6288	578.5086	-0.0462	0.0182	-0.0073	-0.0462	0.0165	0.9715
16.213	0	0	0	0	0	0	0.17274	749.1164	-60.345	291.7203	47.9681	581.531	-0.0462	0.0182	-0.0073	-0.0462	0.0165	0.9715
16.2261	0	0	0	0	0	0	1.1127	756.047	-60.4964	294.5726	47.5099	583.4457	-0.0462	0.0182	-0.0073	-0.0462	0.0165	0.9715
16.2391	0	0	0	0	0	0	1.8474	760.5949	-60.7629	296.4863	47.1971	583.5385	-0.0462	0.0182	-0.0073	-0.0462	0.0165	0.9715
16.2522	0	0	0	0	0	0	2.4498	762.2871	-61.1244	297.2666	46.9775	581.4381	-0.0462	0.0182	-0.0073	-0.0462	0.0165	0.9715
16.2653	0	0	0	0	0	0	2.9736	760.9258	-61.5458	296.8266	46.8013	577.0277	-0.0462	0.0182	-0.0073	-0.0462	0.0165	0.9715
16.2784	0	0	0	0	0	0	3.4559	756.4358	-61.9698	295.1281	46.6153	570.3225	-0.0462	0.0182	-0.0073	-0.0462	0.0165	0.9715
16.2914	0	0	0	0	0	0	3.9199	748.7107	-62.3107	292.1219	46.358	561.3429	-0.0462	0.0182	-0.0073	-0.0462	0.0165	0.9715
16.3045	0	0	0	0	0	0	4.3773	737.4888	-62.4532	287.701	45.9574	550.0089	-0.0462	0.0182	-0.0073	-0.0462	0.0165	0.9715
16.3176	17.7303	16.7542	-0.42091	-6.4204	7.4084	12.1423	4.8286	722.2893	-62.2582	281.676	45.3333	536.0782	-0.0462	0.0182	-0.0073	-0.0462	0.0165	0.9715
16.3306	20.1918	53.1601	1.0054	-19.9989	6.9444	45.726	5.2618	702.4243	-61.5764	273.7809	44.4048	519.1419	-0.0462	0.0182	-0.0073	-0.0462	0.0165	0.9715
16.3437	20.4912	102.4923	3.5993	-38.3154	4.6105	91.3349	5.6512	677.0918	-60.269	263.7095	43.1032	498.6799	-0.0462	0.0182	-0.0073	-0.0462	0.0165	0.9715
16.3568	18.1003	163.6619	7.4756	-60.9405	0.11701	147.9274	5.9588	645.5346	-58.2326	251.1772	41.3854	474.1694	-0.0462	0.0182	-0.0073	-0.0462	0.0165	0.9715
16.3699	12.8881	234.1656	12.6135	-86.928	-6.5504	213.1103	6.1387	607.2341	-55.4218	235.9958	39.2463	445.2211	-0.0462	0.0182	-0.0073	-0.0462	0.0165	0.9715
16.3829	5.1996	310.3478	18.8321	-114.9167	-15.082	283.3829	6.1428	562.0962	-51.8643	218.1444	36.7242	411.7163	-0.0462	0.0182	-0.0073	-0.0462	0.0165	0.9715
16.396	-4.1837	387.9078	25.7897	-143.3227	-24.8606	354.6204	5.9282	510.586	-47.6625	197.8203	33.8993	373.9122	-0.0462	0.0182	-0.0073	-0.0462	0.0165	0.9715
16.4091	-14.1903	462.5451	33.0129	-170.5779	-35.0468	422.6969	5.4628	453.7789	-42.9817	175.4569	30.883	332.4914	-0.0462	0.0182	-0.0073	-0.0462	0.0165	0.9715
16.4221	-23.6676	530.5689	39.9611	-195.3516	-44.7176	484.0804	4.7303	393.3156	-38.0258	151.7037	27.8018	288.5441	-0.0462	0.0182	-0.0073	-0.0462	0.0165	0.9715
